<?xml version="1.0" encoding="UTF-8"?><!DOCTYPE svg PUBLIC "-//W3C//DTD SVG 1.1//EN" "http://www.w3.org/Graphics/SVG/1.1/DTD/svg11.dtd"><svg xmlns="http://www.w3.org/2000/svg"><symbol id="1c_bitrix" viewBox="0 0 200 200"><path d="M81.055 200.026c-17.571-3.639-33.966-11.755-46.837-23.186-33.044-29.347-43.256-75.45-25.8-116.47 4.287-10.074 11.256-20.298 19.891-29.18l7.613-7.83.537 45.83c.514 43.869.63 46.078 2.704 51.606 4.152 11.06 8.602 18.1 16.264 25.73 19.791 19.71 48.821 24.63 73.5 12.455 23.195-11.443 37.818-36.326 36.119-61.46-1.142-16.883-6.82-29.262-19.077-41.597-9.27-9.327-20.175-15.42-32.047-17.904-12.08-2.527-11.5-2.896-11.5 7.328v8.827l6.622 1.22c25.647 4.726 42.609 29.91 37.263 55.327-1.707 8.117-5.516 15.286-11.629 21.889-9.29 10.034-22.361 14.83-33.774 14.809-18.872-.037-34.63-10.76-42.267-26.619 0 0-2-4.532-2.644-7.334C52.212 96.995 54.63 62.32 54.63 62.32l-.293-50.702 2.993-1.548c1.646-.851 3.225-1.548 3.509-1.548.283 0 .643 23.288.8 51.75 0 0-3.635 37.31.856 51.608.648 2.063 1.879 5.592 1.879 5.592 3.937 8.022 10.248 15.078 18.448 18.962 6.224 2.948 9.358 4.283 18.566 4.283 6.017 0 11.347-1.9 17.48-4.72 7.23-3.325 15.523-12.141 18.588-20.19 8.444-22.177-3.314-46.037-25.965-52.69-9.257-2.719-9.068-2.868-9.068 7.198v8.792l4.443 1.189c16.018 4.284 20.905 25.753 8.331 36.784-4.443 3.898-8.446 5.62-15.448 5.62-7.483 0-14.665-4.529-18.358-11.475-2.218-4.173-2.405-8.13-2.405-9.944 0-16.744-.363-46.86-.363-46.86l-.3-51.657 2.3-.571C81.887 1.877 87 1.1 91.982.464c16.9-2.156 41.902 3.374 58.699 12.985 22.9 13.102 40.227 35.61 47.442 61.626 2.482 8.949 2.758 11.55 2.758 25.946 0 14.331-.283 17.02-2.712 25.772-9.812 35.359-34.773 60.635-70.463 71.355-7.512 2.257-11.03 2.687-24.284 2.97-10.696.228-17.629-.11-22.367-1.092z"/></symbol><symbol id="boostrap" viewBox="71 71 370 370"><path d="M438.75 377.833c0 33.504-27.413 60.917-60.917 60.917H134.167c-33.504 0-60.917-27.413-60.917-60.917V134.167c0-33.504 27.412-60.917 60.917-60.917h243.667c33.504 0 60.917 27.412 60.917 60.917l-.001 243.666z"/><path fill="#fff" d="M172.568 152.681h103.618c19.111 0 34.461 4.36 45.986 13.139 11.525 8.779 17.319 21.978 17.319 39.715 0 10.75-2.628 19.947-7.884 27.592-5.256 7.644-12.78 13.617-22.574 17.797v.597c13.139 2.807 23.113 9.018 29.861 18.633 6.748 9.675 10.152 21.738 10.152 36.311 0 8.361-1.493 16.186-4.479 23.411-2.986 7.286-7.645 13.557-14.035 18.812-6.391 5.255-14.512 9.436-24.486 12.542-9.975 3.105-21.799 4.657-35.535 4.657h-97.944V152.681h.001zm37.326 89.284h60.917c8.959 0 16.424-2.508 22.396-7.644 5.973-5.136 8.958-12.422 8.958-21.978 0-10.75-2.688-18.335-8.062-22.694-5.375-4.359-13.14-6.569-23.293-6.569h-60.917v58.885h.001zm0 93.466h65.993c11.348 0 20.187-2.926 26.397-8.839 6.271-5.853 9.437-14.214 9.437-24.964 0-10.571-3.106-18.633-9.437-24.366-6.331-5.734-15.05-8.481-26.397-8.481h-65.993v66.65z"/></symbol><symbol id="css3" viewBox="0 0 362.734 512"><path fill="#264de4" d="M362.734 100.62l-33.046 370.199L181.145 512 33.011 470.877 0 100.62z"/><path fill="#2965f1" d="M301.397 447.246l28.24-316.352h-148.27v349.629z"/><path fill="#ebebeb" d="M75.677 268.217l4.07 45.41h101.62v-45.41zM181.367 176.305H67.499l4.128 45.411h109.74zM181.367 433.399v-47.246l-.199.053-50.574-13.656-3.233-36.217H81.776l6.362 71.301 93.02 25.823z"/><path d="M85.367 0h55v23h-32v23h32v23h-55zM151.367 0h55v20h-32v4h32v46h-55V49h32v-4h-32zM217.367 0h55v20h-32v4h32v46h-55V49h32v-4h-32z"/><path fill="#fff" d="M237.128 313.627l-5.271 58.894-50.647 13.67v47.244l93.094-25.801.683-7.672 10.671-119.551 1.108-12.194 8.198-91.912H181.21v45.411h63.988l-4.132 46.501H181.21v45.41z"/></symbol><symbol id="facebook" viewBox="0 0 96.124 96.123"><path d="M72.089.02L59.624 0C45.62 0 36.57 9.285 36.57 23.656v10.907H24.037a1.96 1.96 0 0 0-1.96 1.961v15.803a1.96 1.96 0 0 0 1.96 1.96H36.57v39.876a1.96 1.96 0 0 0 1.96 1.96h16.352a1.96 1.96 0 0 0 1.96-1.96V54.287h14.654a1.96 1.96 0 0 0 1.96-1.96l.006-15.803a1.963 1.963 0 0 0-1.961-1.961H56.842v-9.246c0-4.444 1.059-6.7 6.848-6.7l8.397-.003a1.96 1.96 0 0 0 1.959-1.96V1.98A1.96 1.96 0 0 0 72.089.02z"/></symbol><symbol id="git" viewBox="0 0 97 97"><path d="M92.71 44.408L52.591 4.291a5.918 5.918 0 0 0-8.369 0l-8.33 8.332L46.459 23.19a7.022 7.022 0 0 1 7.229 1.685 7.03 7.03 0 0 1 1.67 7.275l10.186 10.185a7.028 7.028 0 0 1 7.275 1.671 7.043 7.043 0 0 1-9.961 9.958 7.043 7.043 0 0 1-1.531-7.658l-9.5-9.499v24.997a7.042 7.042 0 1 1-8.096 11.291 7.042 7.042 0 0 1 2.307-11.496v-25.23a7.041 7.041 0 0 1-3.823-9.235L31.798 16.715 4.288 44.222a5.92 5.92 0 0 0 0 8.371l40.121 40.118a5.918 5.918 0 0 0 8.369 0L92.71 52.779a5.92 5.92 0 0 0 0-8.371z"/></symbol><symbol id="gmail" viewBox="0 0 512 512"><path d="M464 64H48C21.504 64 0 85.504 0 112v288c0 26.496 21.504 48 48 48h416c26.496 0 48-21.504 48-48V112c0-26.496-21.504-48-48-48zm-56.512 32L256 215.616 104.512 96h302.976zM448 416H64V148.672l192 147.68L448 148.64V416z"/></symbol><symbol id="gulp" viewBox="0 0 175 387"><g fill-rule="evenodd"><path d="M86.72 304.739c-22.574 0-40.017-3.391-48.405-5.412-5.736-1.382-10.342-2.812-13.841-4.281l11.187 19.113 4.376 59.719c0 6.695 21.268 12.122 47.503 12.122s47.503-5.427 47.503-12.122l3.465-60.369 10.585-18.519c-3.514 1.489-8.161 2.938-13.969 4.337-8.388 2.021-25.831 5.412-48.404 5.412zm62.736-194.328C132.888 112.725 110.899 114 87.54 114c-23.359 0-45.348-1.275-61.916-3.589-8.207-1.146-14.7-2.498-19.299-4.016-1.097-.363-2.956-.982-4.745-1.968L11.845 198.9a80.437 80.437 0 0 1 1.597-4.871 92.354 92.354 0 0 1 4.181-9.731 86.201 86.201 0 0 1 5.169-8.984 69.482 69.482 0 0 1 5.946-7.79c2.102-2.372 4.258-4.412 6.472-6.122 2.213-1.708 4.447-3.044 6.702-4.006 2.256-.962 4.49-1.444 6.703-1.444 2.549 0 5.015.697 7.397 2.091 2.381 1.393 4.607 3.65 6.681 6.769.476.697.778 1.402.903 2.115.127.714.189 1.386.189 2.016 0 1.493-.357 2.672-1.071 3.534-.714.863-1.562 1.294-2.542 1.294-.898 0-1.731-.473-2.501-1.418-.771-.946-1.632-2.298-2.585-4.057-.897-1.593-1.884-2.745-2.962-3.459-1.079-.713-2.248-1.07-3.509-1.07-1.961 0-4.055.813-6.282 2.439-2.228 1.625-4.434 3.774-6.618 6.445-2.186 2.672-4.28 5.724-6.283 9.159a95.582 95.582 0 0 0-5.317 10.551c-1.541 3.602-2.765 7.153-3.676 10.653-.911 3.5-1.366 6.644-1.366 9.431 0 .93.064 1.885.189 2.862.127.98.364 1.867.715 2.664.349.797.826 1.451 1.428 1.964.603.516 1.366.772 2.29.772 1.037 0 2.213-.348 3.531-1.045 1.316-.695 2.682-1.609 4.096-2.736a51.479 51.479 0 0 0 4.266-3.834 68.31 68.31 0 0 0 3.992-4.33 63.288 63.288 0 0 0 3.277-4.205c.953-1.344 1.667-2.514 2.144-3.51l3.908-11.697c.476-1.26 1.099-2.156 1.87-2.687.77-.531 1.562-.797 2.375-.797.391 0 .783.067 1.176.199.393.133.742.341 1.051.622.308.283.553.647.735 1.096.182.447.273.97.273 1.567 0 1.593-.14 3.085-.42 4.48a35.597 35.597 0 0 1-1.072 4.082 70.343 70.343 0 0 1-1.45 4.006 98.955 98.955 0 0 0-1.554 4.207c-.112.166-.315.687-.61 1.566-.294.881-.65 1.985-1.071 3.311-.42 1.328-.876 2.812-1.366 4.455-.491 1.643-.994 3.318-1.512 5.027a408.413 408.413 0 0 0-1.492 5.028 1259.144 1259.144 0 0 0-2.228 7.789 56.33 56.33 0 0 1-.462 1.594c-.14.529-.365 1.119-.672 1.765a11.665 11.665 0 0 1-1.093 1.842A6.712 6.712 0 0 1 40 239.945c-.504.381-1.022.573-1.555.573-.896 0-1.548-.299-1.953-.895-.407-.598-.609-1.693-.609-3.285v-.697c0-.233.013-.483.041-.746.027-.532.238-1.528.631-2.989.392-1.459.861-3.109 1.408-4.951.546-1.842 1.135-3.75 1.765-5.725.629-1.974 1.197-3.74 1.702-5.3a83.674 83.674 0 0 1-4.833 4.953 52.125 52.125 0 0 1-5.337 4.429c-1.822 1.311-3.657 2.381-5.505 3.211-1.849.829-3.628 1.245-5.337 1.245-1.961 0-3.649-.432-5.065-1.295-.255-.157-.496-.332-.736-.506l5.712 59.888c1.487 3.727 29.481 12.884 66.391 12.884 36.927 0 64.932-9.166 66.393-12.89l8.205-71.202c-.679.623-1.34 1.232-1.972 1.822-2.354 2.189-4.575 4.072-6.662 5.648-2.086 1.576-4.125 2.797-6.114 3.658-1.99.864-4.119 1.295-6.388 1.295-2.129 0-3.776-.465-4.938-1.394-1.162-.928-1.744-2.205-1.744-3.832v-.373c0-.116.014-.258.043-.424.111-.994.547-2.141 1.303-3.434a39.467 39.467 0 0 1 2.73-4.031 111.206 111.206 0 0 1 3.404-4.232 195.7 195.7 0 0 0 3.342-4.057c1.022-1.275 1.869-2.445 2.541-3.508.674-1.062 1.01-1.924 1.01-2.588 0-.398-.141-.713-.42-.947-.281-.23-.744-.348-1.387-.348-1.121 0-2.277.291-3.466.871-1.192.58-2.37 1.362-3.532 2.34a31.982 31.982 0 0 0-3.404 3.36 49.566 49.566 0 0 0-3.109 3.931 53.324 53.324 0 0 0-2.647 4.108 57.767 57.767 0 0 0-2.039 3.806c-.168.366-.406.881-.715 1.543-.308.664-.644 1.412-1.008 2.241-.365.83-.75 1.685-1.156 2.562a111.16 111.16 0 0 0-1.113 2.49l-.902 2.09a47.207 47.207 0 0 1-.569 1.27c-.14.298-.371.861-.693 1.691-.322.83-.694 1.801-1.113 2.912l-1.325 3.51a1626.309 1626.309 0 0 0-2.373 6.371c-.308.828-.506 1.393-.59 1.692a18.168 18.168 0 0 1-.986 2.44 10.044 10.044 0 0 1-1.303 2.016 5.96 5.96 0 0 1-1.681 1.392c-.631.35-1.338.523-2.121.523-1.01 0-1.842-.242-2.502-.722-.657-.481-.987-1.403-.987-2.762 0-.664.084-1.344.252-2.04.168-.697.379-1.387.631-2.066.252-.682.512-1.344.778-1.991.265-.648.511-1.269.734-1.867a973.25 973.25 0 0 1 4.623-9.98 460.161 460.161 0 0 0 4.518-9.904c.3-.682.576-1.35.869-2.028-.088.086-.174.176-.26.26-1.822 1.76-3.635 3.31-5.442 4.654-1.808 1.344-3.601 2.414-5.378 3.211-1.78.795-3.51 1.194-5.192 1.194-1.148 0-2.107-.182-2.877-.547-.771-.366-1.386-.864-1.849-1.493-.463-.63-.793-1.377-.989-2.24-.066-.295-.107-.603-.15-.91a40.99 40.99 0 0 1-1.488 1.11c-1.737 1.226-3.446 2.214-5.127 2.96-1.68.747-3.194 1.12-4.537 1.12-1.346 0-2.438-.448-3.28-1.344-.84-.895-1.259-2.422-1.259-4.578 0-1.528.224-3.303.671-5.326-.728 1.294-1.638 2.605-2.73 3.931a23.953 23.953 0 0 1-3.74 3.635A18.687 18.687 0 0 1 70.803 228c-1.738.68-3.629 1.02-5.673 1.02-.925 0-1.814-.116-2.669-.348a5.594 5.594 0 0 1-2.248-1.195c-.645-.563-1.162-1.319-1.555-2.264-.392-.945-.588-2.133-.588-3.559 0-.033.056-.539.168-1.519.112-.979.469-2.522 1.072-4.629.602-2.106 1.534-4.836 2.793-8.188 1.262-3.351 3.041-7.416 5.338-12.193.588-1.262 1.268-2.166 2.037-2.713.772-.548 1.604-.822 2.5-.822.393 0 .799.059 1.219.174.422.117.813.299 1.178.548.363.249.658.565.883.946.222.381.336.82.336 1.318 0 .332-.043.649-.127.945-.141.567-.442 1.303-.902 2.215-.463.914-1.003 1.959-1.62 3.137a293.69 293.69 0 0 0-1.953 3.809 54.344 54.344 0 0 0-1.912 4.23 42.237 42.237 0 0 0-1.513 4.455c-.42 1.51-.659 2.979-.714 4.405 0 .597.139 1.144.42 1.642.28.498.743.746 1.387.746 1.82 0 3.557-.598 5.211-1.791 1.652-1.195 3.178-2.68 4.58-4.455a42.767 42.767 0 0 0 3.803-5.725c1.135-2.041 2.08-3.906 2.836-5.599a28.386 28.386 0 0 0 1.408-3.633 36.134 36.134 0 0 1 1.324-3.584c.477-1.096 1.022-2.008 1.639-2.738.615-.729 1.387-1.095 2.31-1.095 1.01 0 1.807.382 2.397 1.145.588.764.881 1.676.881 2.737 0 .597-.188 1.42-.567 2.465a70.18 70.18 0 0 1-1.429 3.584 459.325 459.325 0 0 1-1.869 4.304 75.544 75.544 0 0 0-1.869 4.655 46.122 46.122 0 0 0-1.43 4.629c-.379 1.509-.567 2.912-.567 4.205 0 1.195.616 1.793 1.848 1.793.869 0 1.947-.299 3.236-.897 1.289-.598 2.641-1.435 4.055-2.514.353-.269.709-.55 1.062-.845.395-1.629.858-3.135 1.397-4.504.98-2.59 1.975-5.16 2.984-7.715a4697.75 4697.75 0 0 1 2.774-7.019l12.732-32.104c.504-1.294 1.184-2.207 2.037-2.738.856-.53 1.717-.796 2.586-.796.867 0 1.658.282 2.373.846.715.565 1.073 1.477 1.073 2.738 0 .597-.12 1.228-.358 1.891a22.894 22.894 0 0 1-.904 2.14 396.042 396.042 0 0 0-2.5 5.724 867.899 867.899 0 0 0-6.514 15.654 5011.643 5011.643 0 0 1-3.404 8.387c-1.105 2.722-2.143 5.3-3.11 7.74-.966 2.439-1.798 4.555-2.5 6.346a27.944 27.944 0 0 0-.902 2.664c-.295 1.011-.441 1.916-.441 2.713 0 .496.084.894.252 1.193.168.299.49.449.966.449.588 0 1.323-.207 2.206-.623.882-.414 1.834-.963 2.857-1.643a45.66 45.66 0 0 0 3.193-2.339 99.148 99.148 0 0 0 3.299-2.737 89.618 89.618 0 0 0 3.131-2.838c.994-.945 1.885-1.816 2.67-2.613.184-.191.404-.326.646-.427a89.386 89.386 0 0 0 1.286-4.151c.224-.598.533-1.443.925-2.539.391-1.096.84-2.174 1.344-3.236.504-1.061 1.073-1.983 1.701-2.762.631-.779 1.311-1.17 2.039-1.17 1.121 0 1.934.258 2.438.771.504.516.756 1.27.756 2.266 0 .199-.028.514-.084.945-.057.432-.125.889-.209 1.37-.084.48-.176.937-.274 1.369-.099.431-.189.746-.273.945a56.639 56.639 0 0 1 3.361-3.359 34.588 34.588 0 0 1 3.74-3.012 21.613 21.613 0 0 1 3.952-2.192c1.343-.562 2.689-.845 4.033-.845.924 0 1.842.133 2.752.399.91.265 1.724.655 2.437 1.169a6.113 6.113 0 0 1 1.744 1.942c.448.779.672 1.683.672 2.712 0 1.362-.342 2.813-1.029 4.356a31.546 31.546 0 0 1-2.584 4.652 58.26 58.26 0 0 1-3.361 4.555 173.74 173.74 0 0 1-3.383 4.031 343.597 343.597 0 0 0-2.649 3.086c-.712.848-1.086 1.42-1.113 1.719 0 .398.127.721.379.971.252.248.672.373 1.26.373.476 0 1.178-.266 2.101-.797.924-.531 2.221-1.451 3.887-2.762s3.783-3.07 6.346-5.277a605.745 605.745 0 0 0 6.135-5.366l11.114-102.929c-1.79.988-3.652 1.608-4.75 1.971-4.598 1.518-11.091 2.87-19.299 4.016zM87.474 85.99c-48.049 0-87 5.372-87 12s38.951 12 87 12 87-5.372 87-12-38.951-12-87-12zm34.738 15.507c0 1.555-4.629 2.816-10.34 2.816-5.71 0-10.339-1.261-10.339-2.816 0-1.556 4.629-2.817 10.339-2.817 5.711 0 10.34 1.261 10.34 2.817z"/><path d="M103.627 100.252a.467.467 0 0 0-.078.25c0 1.007 3.727 1.822 8.323 1.822 4.597 0 8.323-.815 8.323-1.822l10.871-44.078 43.233-45.645a.878.878 0 0 0 .041-.043c.915-1.035-.942-4.238-4.023-6.985-3.081-2.747-6.408-3.677-7.442-2.631a.843.843 0 0 0-.023.024l-46.127 48.538-13.098 50.57z"/></g></symbol><symbol id="html5" viewBox="0 0 512 512"><path d="M107.644 470.877L74.633 100.62h362.734l-33.046 370.199L255.778 512z"/><path d="M256 480.523l120.03-33.277 28.24-316.352H256z"/><path fill="#EBEBEB" d="M256 268.217h-60.09l-4.15-46.501H256v-45.411H142.132l1.087 12.183 11.161 125.139H256zM256 386.153l-.199.053-50.574-13.656-3.233-36.217h-45.585l6.362 71.301 93.02 25.823.209-.058z"/><path d="M108.382 0h23.077v22.8h21.11V0h23.078v69.044H152.57v-23.12h-21.11v23.12h-23.077V0zM205.994 22.896h-20.316V0h63.72v22.896h-20.325v46.148h-23.078V22.896zM259.511 0h24.063l14.802 24.26L313.163 0h24.072v69.044h-22.982V34.822l-15.877 24.549h-.397l-15.888-24.549v34.222h-22.58V0zM348.72 0h23.084v46.222h32.453v22.822H348.72V0z"/><path fill="#FFF" d="M255.843 268.217v45.41h55.918l-5.271 58.894-50.647 13.67v47.244l93.094-25.801.683-7.672 10.671-119.551 1.108-12.194h-12.237zM255.843 176.305V221.716h109.688l.911-10.207 2.069-23.021 1.086-12.183z"/></symbol><symbol id="instagram" viewBox="0 0 169.063 169.063"><path d="M122.406 0H46.654C20.929 0 0 20.93 0 46.655v75.752c0 25.726 20.929 46.655 46.654 46.655h75.752c25.727 0 46.656-20.93 46.656-46.655V46.655C169.063 20.93 148.133 0 122.406 0zm31.657 122.407c0 17.455-14.201 31.655-31.656 31.655H46.654C29.2 154.063 15 139.862 15 122.407V46.655C15 29.201 29.2 15 46.654 15h75.752c17.455 0 31.656 14.201 31.656 31.655v75.752z"/><path d="M84.531 40.97c-24.021 0-43.563 19.542-43.563 43.563 0 24.02 19.542 43.561 43.563 43.561s43.563-19.541 43.563-43.561c0-24.021-19.542-43.563-43.563-43.563zm0 72.123c-15.749 0-28.563-12.812-28.563-28.561 0-15.75 12.813-28.563 28.563-28.563s28.563 12.813 28.563 28.563c0 15.749-12.814 28.561-28.563 28.561zM129.921 28.251c-2.89 0-5.729 1.17-7.77 3.22a11.053 11.053 0 0 0-3.23 7.78c0 2.891 1.18 5.73 3.23 7.78 2.04 2.04 4.88 3.22 7.77 3.22 2.9 0 5.73-1.18 7.78-3.22 2.05-2.05 3.22-4.89 3.22-7.78 0-2.9-1.17-5.74-3.22-7.78-2.04-2.05-4.88-3.22-7.78-3.22z"/></symbol><symbol id="jquery" viewBox="0 0 420 120"><path d="M119.88 46.171l.001-.005-3.352 11.88 3.35-11.875zM137.12 71.962l-3.694-.022 3.694.022zM136.17 89.703h.004l-22.131.08 22.128-.08zM140.81 71.984l-3.695-.022 3.695.022zM138.11 88.195l3.855-14.702-3.855 14.705v-.002zM219.59 20.49l-7.181 33.76 7.181-33.76zM201.13 20.49l-5.452 25.22 5.452-25.222v.002z"/><path d="M218.36 18.971h-15.356c-.852 0-1.698.684-1.88 1.516l-5.451 25.222-5.452 25.222c-.18.833-1.026 1.514-1.878 1.514h-10.869c-10.753 0-9.509-7.437-7.307-17.627l.066-.308.242-1.284c.014-.083.032-.166.045-.242l.49-2.615.527-2.802c.16-.845.403-2.08.561-2.857l2.478-12.109 2.48-12.109c.172-.835-.387-1.52-1.24-1.52h-15.761c-.852 0-1.696.685-1.87 1.518l-3.39 16.079-3.388 16.077c-.003.007-.004.017-.005.024l-.315 1.495c-3.904 17.822-2.868 34.817 18.347 35.349.347.01.615.012.615.012h33.302c.853 0 1.696-.684 1.874-1.519l7.182-33.757 7.181-33.76c.177-.834-.376-1.518-1.228-1.518zM279.62 72.621c.853 0 1.411.684 1.24 1.519l-1.491 7.287M277.88 88.719l1.49-7.293-1.491 7.295v-.002zM276.01 90.253l.007-.002c-4.519.037-18.099.14-28.306.14 12.422 0 28.298-.138 28.298-.138zM238.55 63.234c-.013-.798.896-2.173 1.75-2.173l-1.918-.032c-.865 8.692.168 2.205.168 2.205z"/><path d="M249.11 90.387c-.098 0-.198 0-.295.002.097-.002.197-.002.295-.002zM279.62 72.621c.853 0 1.411.684 1.24 1.519l-1.491 7.287-.243 1.19M256.38 90.37h-.062.062zM252.61 90.382h-.219.219zM251.46 90.385c-.122 0-.242 0-.361.002.12-.002.239-.002.361-.002zM250.29 90.387h-.317.317zM252.39 90.382l-.93.002.93-.002zM256.32 90.37c-1.243.005-2.483.01-3.705.013 1.222-.002 2.464-.007 3.705-.013zM276.02 90.25h.001a5037.459 5037.459 0 0 1-.001 0zM277.88 88.722l1.249-6.106-1.25 6.11v-.004zM251.1 90.387h-.81.81zM248.81 90.389h-1.096 1.096zM249.97 90.387h-.864.864zM25.344 63.417l2.385-10.574-2.727 12.087-2.617 12.312 2.294-10.793c.177-.835.477-2.2.665-3.032zM53.894 18.793H37.03c-.853 0-1.704.681-1.895 1.511l-1.599 7.058-1.599 7.06c-.188.831.356 1.512 1.209 1.512H50.14c.852 0 1.699-.681 1.882-1.514l1.545-7.058 1.546-7.053v-.002c.182-.832-.366-1.514-1.22-1.514zM50.224 42.272v-.002l-4.946 22.883 4.946-22.881zM1.234 118.09s8.5.11 13.905.11c-4.105 0-10.885-.076-13.912-.112l.008.002zM30.114 42.269l-2.388 10.574 2.388-10.574z"/><path d="M49.004 40.756H32.007c-.852 0-1.704.681-1.892 1.514l-2.388 10.574-2.385 10.574c-.188.832-.488 2.197-.665 3.032l-2.294 10.793-2.292 10.793a32.521 32.521 0 0 1-.818 2.986s-3.175 9.448-8.514 9.34c-.227-.004-.448-.006-.666-.012l-4.62-.086H5.47c-.851-.012-1.707.652-1.906 1.48l-1.762 7.41-1.76 7.407c-.198.828.336 1.511 1.183 1.526 3.028.036 9.808.112 13.912.112 13.334 0 20.363-7.388 24.87-28.647l5.273-24.399 4.946-22.883c.18-.832-.371-1.514-1.223-1.514zM290.45 89.525c-.852 0-1.405-.684-1.226-1.519l12.786-59.89M308.22 88.004l5.17-25.562-5.17 25.562z"/><path d="M289.41 88.766c-.104-.417-.043-1.44.138-2.275l6.068-28.428-6.393 29.944c-.18.835.374 1.518 1.226 1.518h1.553c-.854 0-2.49-.342-2.592-.76zM307.21 89.183c-.464.188-1.543.342-2.396.342h1.552c.853 0 1.69-.684 1.858-1.521l.308-1.519c-.17.835-.857 2.51-1.322 2.698zM310.81 75.223l2.283-11.282c-.001.007-.002.017-.004.022l-2.28 11.26zM361.26 32.128l.704 2.91c.194.833-.344 1.509-1.195 1.511M308.53 86.486l2.277-11.262-2.277 11.262zM360.56 29.147l.697 2.981-.697-2.981zM313.09 63.942c.17-.835.45-2.188.627-3.015l2.438-11.421-2.761 12.937-.304 1.499zM302.22 27.135c-.17.806-.387 1.824-.531 2.498l-6.068 28.43 6.393-29.946.206-.982z"/><path d="M361.96 35.038l-.704-2.91-.697-2.981-.353-1.509c-1.38-5.364-5.434-8.46-14.233-8.46l-13.7-.014-12.617-.015h-14.197c-.852 0-1.696.681-1.871 1.516h-.001l-.628 2.967-.74 3.503-.207.982-6.393 29.946-6.068 28.428c-.18.835-.242 1.857-.138 2.275.103.417 1.738.76 2.592.76h12.808c.853 0 1.932-.155 2.396-.343.465-.188 1.152-1.862 1.322-2.697l2.276-11.262 2.28-11.26c0-.005.001-.015.003-.022l.304-1.5 2.761-12.936 2.44-11.426c.18-.83 1.02-1.51 1.87-1.512l40.3-.02c.852-.001 1.39-.678 1.196-1.51z"/><path d="M413.84 8.724c-.853.006-2.248.012-3.102.012H397.84c-.853 0-1.946.576-2.427 1.28L366.89 51.803c-.482.706-1.031.6-1.22-.23l-2.099-9.206c-.189-.832-1.043-1.511-1.896-1.511h-18.337c-.853 0-1.358.669-1.125 1.49l8.217 28.783c.234.82.251 2.168.04 2.994l-3.582 13.93c-.212.828.313 1.504 1.166 1.504h18.123c.852 0 1.724-.676 1.935-1.503l3.583-13.931c.211-.826.804-2.061 1.318-2.742l46.306-61.46c.514-.68.236-1.235-.616-1.228l-4.861.031zM268.16 44.774l-.001-.017c-.107.925-.96 1.604-1.813 1.604h-23.248c-.803 0-1.212-.547-1.094-1.22.007-.02.01-.037.022-.054 0 0-.008.001-.014.006.005-.026.005-.05.012-.078l.107-.395c2.22-5.903 6.743-9.778 15.243-9.778 9.569 0 11.437 4.675 10.787 9.932zm-6.82-26.834c-29.841 0-36.912 18.113-40.879 36.394-3.967 18.633-3.625 36.055 27.253 36.055h1.096c.098-.002.198-.002.296-.002h1.992c.12-.002.24-.002.361-.002l.93-.002h.219c1.222-.002 2.462-.008 3.705-.012h.062c8.155-.032 16.334-.093 19.647-.12.847-.013 1.676-.696 1.85-1.524l1.25-6.11.243-1.19 1.492-7.287c.171-.835-.387-1.519-1.24-1.519h-27.761c-11.041 0-14.32-2.934-13.112-11.56h44.377l-.004.005c.011 0 .02-.005.03-.005.706-.012 1.358-.498 1.617-1.145.049-.124.09-.253.107-.388l-.005.005c6.59-24.854 4.7-41.592-23.528-41.592zM120.3 44.679l-.42 1.487v.005l-3.352 11.875-3.35 11.873c-.231.82-1.118 1.492-1.972 1.492H93.47c-13.453 0-16.729-10.523-13.453-26.043 3.275-15.874 9.697-25.742 22.938-26.74 18.094-1.365 21.714 11.361 17.345 26.051zm12.163 25.818s8.362-20.303 10.261-32.031C145.324 22.767 137.464 0 107.104 0 76.915 0 63.807 21.737 58.805 45.367c-5.001 23.801 1.551 44.675 31.567 44.504l23.679-.088 22.131-.08c.852-.008 1.724-.684 1.94-1.507l3.856-14.705c.215-.825-.306-1.504-1.159-1.509l-3.695-.022-3.693-.022c-.726-.005-1.14-.473-1.053-1.096.016-.112.042-.227.09-.347z"/><path d="M281.9 56.908a1.018 1.018 0 0 1-2.036 0c0-.562.456-1.016 1.018-1.016.563 0 1.018.454 1.018 1.016z"/></symbol><symbol id="js" viewBox="0 0 630 630"><path d="M0 0h630v630H0z"/><path fill="#fff" d="M423.2 492.19c12.69 20.72 29.2 35.95 58.4 35.95 24.53 0 40.2-12.26 40.2-29.2 0-20.3-16.1-27.49-43.1-39.3l-14.8-6.35c-42.72-18.2-71.1-41-71.1-89.2 0-44.4 33.83-78.2 86.7-78.2 37.64 0 64.7 13.1 84.2 47.4l-46.1 29.6c-10.15-18.2-21.1-25.37-38.1-25.37-17.34 0-28.33 11-28.33 25.37 0 17.76 11 24.95 36.4 35.95l14.8 6.34c50.3 21.57 78.7 43.56 78.7 93 0 53.3-41.87 82.5-98.1 82.5-54.98 0-90.5-26.2-107.88-60.54zm-209.13 5.13c9.3 16.5 17.76 30.45 38.1 30.45 19.45 0 31.72-7.61 31.72-37.2v-201.3h59.2v202.1c0 61.3-35.94 89.2-88.4 89.2-47.4 0-74.85-24.53-88.81-54.075z"/></symbol><symbol id="odnoklassniki" viewBox="0 0 95.481 95.481"><path d="M43.041 67.254c-7.402-.772-14.076-2.595-19.79-7.064-.709-.556-1.441-1.092-2.088-1.713-2.501-2.402-2.753-5.153-.774-7.988 1.693-2.426 4.535-3.075 7.489-1.682.572.27 1.117.607 1.639.969 10.649 7.317 25.278 7.519 35.967.329 1.059-.812 2.191-1.474 3.503-1.812 2.551-.655 4.93.282 6.299 2.514 1.564 2.549 1.544 5.037-.383 7.016-2.956 3.034-6.511 5.229-10.461 6.761-3.735 1.448-7.826 2.177-11.875 2.661.611.665.899.992 1.281 1.376 5.498 5.524 11.02 11.025 16.5 16.566 1.867 1.888 2.257 4.229 1.229 6.425-1.124 2.4-3.64 3.979-6.107 3.81-1.563-.108-2.782-.886-3.865-1.977-4.149-4.175-8.376-8.273-12.441-12.527-1.183-1.237-1.752-1.003-2.796.071-4.174 4.297-8.416 8.528-12.683 12.735-1.916 1.889-4.196 2.229-6.418 1.15-2.362-1.145-3.865-3.556-3.749-5.979.08-1.639.886-2.891 2.011-4.014 5.441-5.433 10.867-10.88 16.295-16.322.359-.362.694-.746 1.217-1.305z"/><path d="M47.55 48.329c-13.205-.045-24.033-10.992-23.956-24.218C23.67 10.739 34.505-.037 47.84 0c13.362.036 24.087 10.967 24.02 24.478-.068 13.199-10.971 23.897-24.31 23.851zm12.001-24.186c-.023-6.567-5.253-11.795-11.807-11.801-6.609-.007-11.886 5.316-11.835 11.943.049 6.542 5.324 11.733 11.896 11.709 6.552-.023 11.768-5.285 11.746-11.851z"/></symbol><symbol id="phone" viewBox="0 0 473.806 473.806"><path d="M374.456 293.506c-9.7-10.1-21.4-15.5-33.8-15.5-12.3 0-24.1 5.3-34.2 15.4l-31.6 31.5c-2.6-1.4-5.2-2.7-7.7-4-3.6-1.8-7-3.5-9.9-5.3-29.6-18.8-56.5-43.3-82.3-75-12.5-15.8-20.9-29.1-27-42.6 8.2-7.5 15.8-15.3 23.2-22.8 2.8-2.8 5.6-5.7 8.4-8.5 21-21 21-48.2 0-69.2l-27.3-27.3c-3.1-3.1-6.3-6.3-9.3-9.5-6-6.2-12.3-12.6-18.8-18.6-9.7-9.6-21.3-14.7-33.5-14.7s-24 5.1-34 14.7l-.2.2-34 34.3c-12.8 12.8-20.1 28.4-21.7 46.5-2.4 29.2 6.2 56.4 12.8 74.2 16.2 43.7 40.4 84.2 76.5 127.6 43.8 52.3 96.5 93.6 156.7 122.7 23 10.9 53.7 23.8 88 26 2.1.1 4.3.2 6.3.2 23.1 0 42.5-8.3 57.7-24.8.1-.2.3-.3.4-.5 5.2-6.3 11.2-12 17.5-18.1 4.3-4.1 8.7-8.4 13-12.9 9.9-10.3 15.1-22.3 15.1-34.6 0-12.4-5.3-24.3-15.4-34.3l-54.9-55.1zm35.8 105.3c-.1 0-.1.1 0 0-3.9 4.2-7.9 8-12.2 12.2-6.5 6.2-13.1 12.7-19.3 20-10.1 10.8-22 15.9-37.6 15.9-1.5 0-3.1 0-4.6-.1-29.7-1.9-57.3-13.5-78-23.4-56.6-27.4-106.3-66.3-147.6-115.6-34.1-41.1-56.9-79.1-72-119.9-9.3-24.9-12.7-44.3-11.2-62.6 1-11.7 5.5-21.4 13.8-29.7l34.1-34.1c4.9-4.6 10.1-7.1 15.2-7.1 6.3 0 11.4 3.8 14.6 7l.3.3c6.1 5.7 11.9 11.6 18 17.9 3.1 3.2 6.3 6.4 9.5 9.7l27.3 27.3c10.6 10.6 10.6 20.4 0 31-2.9 2.9-5.7 5.8-8.6 8.6-8.4 8.6-16.4 16.6-25.1 24.4-.2.2-.4.3-.5.5-8.6 8.6-7 17-5.2 22.7l.3.9c7.1 17.2 17.1 33.4 32.3 52.7l.1.1c27.6 34 56.7 60.5 88.8 80.8 4.1 2.6 8.3 4.7 12.3 6.7 3.6 1.8 7 3.5 9.9 5.3.4.2.8.5 1.2.7 3.4 1.7 6.6 2.5 9.9 2.5 8.3 0 13.5-5.2 15.2-6.9l34.2-34.2c3.4-3.4 8.8-7.5 15.1-7.5 6.2 0 11.3 3.9 14.4 7.3l.2.2 55.1 55.1c10.3 10.2 10.3 20.7.1 31.3zM256.056 112.706c26.2 4.4 50 16.8 69 35.8s31.3 42.8 35.8 69c1.1 6.6 6.8 11.2 13.3 11.2.8 0 1.5-.1 2.3-.2 7.4-1.2 12.3-8.2 11.1-15.6-5.4-31.7-20.4-60.6-43.3-83.5s-51.8-37.9-83.5-43.3c-7.4-1.2-14.3 3.7-15.6 11s3.5 14.4 10.9 15.6zM473.256 209.006c-8.9-52.2-33.5-99.7-71.3-137.5s-85.3-62.4-137.5-71.3c-7.3-1.3-14.2 3.7-15.5 11-1.2 7.4 3.7 14.3 11.1 15.6 46.6 7.9 89.1 30 122.9 63.7 33.8 33.8 55.8 76.3 63.7 122.9 1.1 6.6 6.8 11.2 13.3 11.2.8 0 1.5-.1 2.3-.2 7.3-1.1 12.3-8.1 11-15.4z"/></symbol><symbol id="plus" viewBox="0 0 31.444 31.444"><path d="M1.119 16.841a1.118 1.118 0 0 1-1.111-1.127c0-.619.492-1.111 1.111-1.111h13.475V1.127A1.133 1.133 0 0 1 15.722 0c.619 0 1.111.508 1.111 1.127v13.476h13.475c.619 0 1.127.492 1.127 1.111s-.508 1.127-1.127 1.127H16.833v13.476c0 .619-.492 1.127-1.111 1.127a1.131 1.131 0 0 1-1.127-1.127V16.841H1.119z"/></symbol><symbol id="react" viewBox="0 0 841.9 595.3"><path d="M666.3 296.5c0-32.5-40.7-63.3-103.1-82.4 14.4-63.6 8-114.2-20.2-130.4-6.5-3.8-14.1-5.6-22.4-5.6v22.3c4.6 0 8.3.9 11.4 2.6 13.6 7.8 19.5 37.5 14.9 75.7-1.1 9.4-2.9 19.3-5.1 29.4-19.6-4.8-41-8.5-63.5-10.9-13.5-18.5-27.5-35.3-41.6-50 32.6-30.3 63.2-46.9 84-46.9V78c-27.5 0-63.5 19.6-99.9 53.6-36.4-33.8-72.4-53.2-99.9-53.2v22.3c20.7 0 51.4 16.5 84 46.6-14 14.7-28 31.4-41.3 49.9-22.6 2.4-44 6.1-63.6 11-2.3-10-4-19.7-5.2-29-4.7-38.2 1.1-67.9 14.6-75.8 3-1.8 6.9-2.6 11.5-2.6V78.5c-8.4 0-16 1.8-22.6 5.6-28.1 16.2-34.4 66.7-19.9 130.1-62.2 19.2-102.7 49.9-102.7 82.3 0 32.5 40.7 63.3 103.1 82.4-14.4 63.6-8 114.2 20.2 130.4 6.5 3.8 14.1 5.6 22.5 5.6 27.5 0 63.5-19.6 99.9-53.6 36.4 33.8 72.4 53.2 99.9 53.2 8.4 0 16-1.8 22.6-5.6 28.1-16.2 34.4-66.7 19.9-130.1 62-19.1 102.5-49.9 102.5-82.3zm-130.2-66.7c-3.7 12.9-8.3 26.2-13.5 39.5-4.1-8-8.4-16-13.1-24-4.6-8-9.5-15.8-14.4-23.4 14.2 2.1 27.9 4.7 41 7.9zm-45.8 106.5c-7.8 13.5-15.8 26.3-24.1 38.2-14.9 1.3-30 2-45.2 2-15.1 0-30.2-.7-45-1.9-8.3-11.9-16.4-24.6-24.2-38-7.6-13.1-14.5-26.4-20.8-39.8 6.2-13.4 13.2-26.8 20.7-39.9 7.8-13.5 15.8-26.3 24.1-38.2 14.9-1.3 30-2 45.2-2 15.1 0 30.2.7 45 1.9 8.3 11.9 16.4 24.6 24.2 38 7.6 13.1 14.5 26.4 20.8 39.8-6.3 13.4-13.2 26.8-20.7 39.9zm32.3-13c5.4 13.4 10 26.8 13.8 39.8-13.1 3.2-26.9 5.9-41.2 8 4.9-7.7 9.8-15.6 14.4-23.7 4.6-8 8.9-16.1 13-24.1zM421.2 430c-9.3-9.6-18.6-20.3-27.8-32 9 .4 18.2.7 27.5.7 9.4 0 18.7-.2 27.8-.7-9 11.7-18.3 22.4-27.5 32zm-74.4-58.9c-14.2-2.1-27.9-4.7-41-7.9 3.7-12.9 8.3-26.2 13.5-39.5 4.1 8 8.4 16 13.1 24 4.7 8 9.5 15.8 14.4 23.4zM420.7 163c9.3 9.6 18.6 20.3 27.8 32-9-.4-18.2-.7-27.5-.7-9.4 0-18.7.2-27.8.7 9-11.7 18.3-22.4 27.5-32zm-74 58.9c-4.9 7.7-9.8 15.6-14.4 23.7-4.6 8-8.9 16-13 24-5.4-13.4-10-26.8-13.8-39.8 13.1-3.1 26.9-5.8 41.2-7.9zm-90.5 125.2c-35.4-15.1-58.3-34.9-58.3-50.6 0-15.7 22.9-35.6 58.3-50.6 8.6-3.7 18-7 27.7-10.1 5.7 19.6 13.2 40 22.5 60.9-9.2 20.8-16.6 41.1-22.2 60.6-9.9-3.1-19.3-6.5-28-10.2zM310 490c-13.6-7.8-19.5-37.5-14.9-75.7 1.1-9.4 2.9-19.3 5.1-29.4 19.6 4.8 41 8.5 63.5 10.9 13.5 18.5 27.5 35.3 41.6 50-32.6 30.3-63.2 46.9-84 46.9-4.5-.1-8.3-1-11.3-2.7zm237.2-76.2c4.7 38.2-1.1 67.9-14.6 75.8-3 1.8-6.9 2.6-11.5 2.6-20.7 0-51.4-16.5-84-46.6 14-14.7 28-31.4 41.3-49.9 22.6-2.4 44-6.1 63.6-11 2.3 10.1 4.1 19.8 5.2 29.1zm38.5-66.7c-8.6 3.7-18 7-27.7 10.1-5.7-19.6-13.2-40-22.5-60.9 9.2-20.8 16.6-41.1 22.2-60.6 9.9 3.1 19.3 6.5 28.1 10.2 35.4 15.1 58.3 34.9 58.3 50.6-.1 15.7-23 35.6-58.4 50.6zM320.8 78.4z"/><circle cx="420.9" cy="296.5" r="45.7"/><path d="M520.5 78.1z"/></symbol><symbol id="sass" viewBox="0 0 512 512"><path d="M446.767 284.975c-7.764 2.936-7.45 2.988-11.557-4.493-5.245-9.529-8.035-19.55-8.276-30.448-.199-9.352 2.361-18.045 5.58-26.572 2.57-6.781-.773-9.174-6.646-9.791-4.274-.439-8.683-.397-12.967.042-11.139 1.139-12.236 2.1-15.193 12.915-1.755 6.416-3.156 12.884-6.071 18.975-7.189 14.994-15.36 29.435-23.74 43.771-1.505 2.581-2.748 5.36-4.869 7.565-6.071-9.091-8.359-19.132-8.871-29.665-.512-10.397 2.675-20.062 6.175-29.623 1.181-3.218.199-5.214-2.581-6.604-1.233-.616-2.612-1.191-3.96-1.296-7.147-.564-14.273-.481-21.243 1.473-3.135.867-5.183 2.623-5.883 6.144a93.771 93.771 0 0 1-6.343 20.01c-7.941 17.826-15.83 35.683-23.761 53.52-6.896 15.496-13.688 31.033-21.859 45.913-.575 1.055-1.055 2.884-2.497 2.518-1.463-.366-.951-2.163-1.014-3.396-.47-8.777 1.923-17.147 3.96-25.527 3.229-13.26 6.76-26.457 10.188-39.675.982-3.793-.669-6.343-3.814-8.161-4.524-2.602-9.028-2.727-13.928.919.669-5.392.961-10.125.731-14.858-.522-10.553-5.413-17.418-13.928-19.007-6.217-1.16-12.1.648-17.659 3.281-12.957 6.134-23.374 15.381-32.131 26.603-1.024 1.306-2.058 2.508-3.542 3.312-16.436 8.955-32.862 17.91-49.256 26.948-1.797 1.003-2.957.721-4.253-.669-8.255-8.85-17.836-16.154-27.324-23.562-13.26-10.365-26.979-20.187-38.421-32.684-6.687-7.314-12.267-15.329-15.057-25.004-4.556-15.82-1.149-30.553 6.437-44.554 8.976-16.562 22.288-29.351 36.968-40.741 23.312-18.077 48.88-32.434 75.828-44.251 30.177-13.218 61.482-21.734 94.824-20.449 13.208.512 26.028 2.8 37.794 9.268 8.328 4.577 13.845 11.191 15.402 20.898 1.829 11.368-.899 21.87-5.945 31.828-11.274 22.246-29.194 38.003-50.375 50.343-17.638 10.271-36.665 16.792-56.801 20.208-11.128 1.891-22.298 3.03-33.489 1.327-12.842-1.954-24.712-6.248-33.499-16.593-1.014-1.191-2.299-2.017-4.023-1.181-1.766.857-1.63 2.424-1.463 3.929.125 1.034.408 2.079.773 3.062 2.351 6.343 6.75 11.128 11.901 15.308 13.396 10.898 29.268 14.096 45.934 14.42 16.311.324 32.371-1.745 48.264-5.548 35.85-8.568 65.881-26.154 87.803-56.289 13.103-18.014 21.4-37.867 20.668-60.583-.47-14.409-5.319-27.136-15.82-37.48-12.487-12.278-27.982-18.453-44.607-22.162-18.516-4.117-37.219-4.702-56.111-2.445-16.436 1.964-32.496 5.329-48.128 10.71-23.918 8.244-47.02 18.369-69.13 30.678-22.653 12.601-44.001 27.032-62.725 45.108-16.572 15.997-30.814 33.646-38.839 55.557-3.427 9.383-5.893 19.028-3.594 29.174 2.947 13.061 9.383 24.367 17.847 34.565 12.8 15.444 28.505 27.606 44.701 39.225 13.009 9.341 26.624 17.847 39.121 27.888 3.542 2.842 3.521 2.842-.648 5.026-4.869 2.539-9.791 4.984-14.576 7.69-19.298 10.91-37.949 22.738-53.174 39.175-7.492 8.098-12.581 17.189-14.952 27.282a256.811 256.811 0 0 0 43.802 49.977c28.432-2.215 50.197-17.011 66.278-41.482 7.764-11.818 11.4-25.192 12.769-39.299 1.202-12.434-.063-24.472-3.72-36.342-.637-2.09-3.009-4.169-2.079-6.008.867-1.693 3.48-2.55 5.402-3.657 7.753-4.504 15.527-8.944 23.51-13.531.345 1.714-.324 2.717-.616 3.803-4.577 16.792-7.764 33.719-4.284 51.169 2.163 10.867 5.768 21.096 12.622 30.093 7.053 9.258 22.8 8.202 29.194-.251 6.071-8.025 10.094-17.074 14.284-26.081 2.299-4.932 4.409-9.947 6.604-14.932-.408 5.998-.387 11.849-.167 17.68.219 5.747 1.139 11.421 4.127 16.499 3.594 6.102 10.355 7.879 16.635 4.618 6.625-3.438 11.139-9.101 14.649-15.245 15.057-26.425 29.027-53.415 40.594-81.596 2.466-5.987 4.995-11.964 7.785-18.62.428 2.184.711 3.521.972 4.859 2.57 13.427 7.147 26.133 13.772 38.076 1.421 2.56 1.264 4.326-.533 6.781-6.102 8.307-12.79 16.123-19.383 24.022-5.538 6.646-11.463 12.999-16.144 20.313-4.2 6.583-1.787 13.322 5.204 14.817 2.152.46 4.42.596 6.625.564 12.215-.146 23.489-3.793 33.991-9.77 14.137-8.056 22.518-19.864 22.131-36.676-.178-7.649-2.247-14.994-5.329-22.006-.679-1.557-.711-2.685.303-4.148 9.791-14.023 18.442-28.724 26.394-43.854 1.411-2.664 2.403-5.622 4.681-8.223.303 1.055.543 1.714.679 2.393 2.529 12.539 5.935 24.795 12.33 35.986 1.755 3.062.878 4.618-1.546 6.666-8.349 7.095-15.391 15.37-20.919 24.848-4.305 7.377-7.252 15.255-7.22 23.897.031 9.613 7.387 15.276 16.76 13.019 9.77-2.341 18.829-6.322 26.958-12.267 17.711-12.967 22.904-26.645 17.356-45.735-2.173-7.513-2.132-7.387 5.402-9.665 16.478-4.974 33.196-5.183 49.998-2.445 1.902.313 3.783.669 5.642 1.076a245.533 245.533 0 0 0 2.299-18.119c-21.494-5.254-42.957-2.527-64.168 5.529zM98.586 419.401c-4.775 1.693-9.738 2.414-14.817 2.017-6.322-.502-10.334-4.963-10.742-11.672-.46-7.732 1.829-14.712 5.214-21.504 6.154-12.33 16.488-20.699 27.032-28.912 10.25-7.993 21.264-14.817 32.402-21.452 3.375-2.006 3.427-1.985 4.2 2.038 1.003 5.162 1.902 10.334 1.567 15.026.879 28.138-19.559 55.504-44.856 64.459zm153.37-141.887c-1.776 11.86-5.653 23.155-9.78 34.314-5.622 15.235-11.097 30.542-18.171 45.192-1.62 3.375-3.323 6.729-5.945 9.477-2.476 2.602-4.671 2.299-6.384-.878-3.344-6.207-2.926-13.113-3.469-18.129.157-25.161 8.6-45.725 22.507-64.209 3.887-5.151 8.85-9.341 15.423-11.024 4.461-1.137 6.519.66 5.819 5.257zm97.385 74.491c-4.765 8.234-11.63 14.221-20.052 18.484-.899.449-2.058 1.243-2.873.188-.773-.993.47-1.651 1.034-2.278 8.37-9.143 16.635-18.359 24.085-28.275.115-.157.397-.178 1.034-.449-.073 4.588-1.076 8.621-3.228 12.33zm57.793-.355c-1.243.585-2.685 1.682-3.897.742-1.337-1.034-.805-2.863-.397-4.263 1.902-6.384 4.462-12.497 7.993-18.192 2.967-4.796 6.646-8.986 10.689-12.894 1.63-1.567 2.361-1.379 2.915.878.575 2.309.627 4.618.669 6.969-.104 12.863-6.635 21.421-17.972 26.76z"/></symbol><symbol id="skype" viewBox="0 0 430.123 430.123"><path d="M412.164 246.198a199.284 199.284 0 0 0 2.45-31.148c0-110.215-89.342-199.555-199.56-199.555-10.576 0-20.995.871-31.141 2.458C165.534 6.581 143.842 0 120.595 0 53.996 0 .005 53.984.005 120.59c0 23.242 6.585 44.916 17.952 63.332-1.573 10.172-2.439 20.528-2.439 31.132 0 110.223 89.34 199.536 199.532 199.536 10.585 0 21.007-.816 31.152-2.417 18.398 11.35 40.072 17.949 63.314 17.949 66.617 0 120.602-53.998 120.602-120.602.005-23.251-6.576-44.92-17.954-63.322zM309.801 305.81c-8.442 12.153-20.843 21.65-37.047 28.479-16.237 6.847-35.428 10.254-57.59 10.254-26.562 0-48.554-4.648-65.913-14.034-12.305-6.721-22.313-15.737-30.007-26.98-7.71-11.252-11.619-22.271-11.619-33.015 0-6.338 2.417-11.85 7.122-16.344 4.754-4.527 10.877-6.796 18.104-6.796 5.92 0 11.005 1.783 15.145 5.316 4.109 3.532 7.556 8.667 10.375 15.443 3.379 7.85 7.049 14.412 10.954 19.648 3.881 5.171 9.343 9.488 16.417 12.867 6.996 3.388 16.307 5.082 27.958 5.082 15.945 0 28.831-3.449 38.693-10.253 9.912-6.866 14.673-15.22 14.673-25.314 0-8.051-2.567-14.445-7.831-19.43-5.312-5.05-12.172-8.896-20.685-11.579-8.546-2.711-20.02-5.586-34.399-8.615-19.308-4.214-35.456-9.119-48.533-14.752-13.094-5.654-23.522-13.383-31.251-23.146-7.745-9.859-11.607-22.113-11.607-36.627 0-13.84 4.077-26.217 12.239-36.989 8.158-10.802 19.961-19.07 35.351-24.829 15.336-5.757 33.391-8.637 54.075-8.637 16.541 0 30.849 1.914 42.96 5.722 12.078 3.836 22.146 8.898 30.196 15.25 7.999 6.338 13.885 13.023 17.613 20.038 3.725 7.036 5.601 13.908 5.601 20.614 0 6.235-2.417 11.89-7.127 16.846-4.709 4.963-10.733 7.493-17.768 7.47-6.342 0-11.317-1.463-14.767-4.56-3.36-2.996-6.889-7.766-10.706-14.414-4.825-9.276-10.604-16.503-17.324-21.672-6.543-5.073-17.338-7.714-32.359-7.682-13.898 0-25.018 2.84-33.411 8.394-8.445 5.643-12.482 12.19-12.501 19.861.014 4.807 1.396 8.86 4.177 12.326 2.824 3.498 6.753 6.529 11.803 9.084a81.825 81.825 0 0 0 15.355 6.046c5.225 1.481 13.894 3.622 25.944 6.457 15.112 3.257 28.819 6.896 41.136 10.862 12.293 3.986 22.784 8.793 31.451 14.52 8.736 5.71 15.564 12.99 20.438 21.783 4.909 8.807 7.354 19.564 7.354 32.222.019 15.242-4.227 28.95-12.689 41.084z"/></symbol><symbol id="telegram" viewBox="0 0 26.649 26.649"><path d="M26.157 1.238A2.3 2.3 0 0 0 24.31.346c-.478 0-.973.133-1.472.395L1.593 11.88c-1.51.793-1.615 1.987-1.59 2.463.024.479.255 1.654 1.839 2.283L4.557 17.7a4.63 4.63 0 0 0 1.711.309c.098 0 .192-.013.289-.018-.037.048-.082.085-.116.135-.506.757-.531 1.783-.073 2.888a.887.887 0 0 0 .021.051c.803 1.779 1.696 3.787 1.804 4.066a1.828 1.828 0 0 0 1.688 1.172c1.146 0 1.486-.552 3.361-3.604.146-.224.471-.744.526-1.406l.601.242 3.008 1.226c.603.246 1.131.463 1.409.578a1.807 1.807 0 0 0 .937.264c1.368 0 1.696-1.185 1.872-1.82.087-.314.207-.749.336-1.229l4.588-16.858c.346-1.273-.079-2.086-.362-2.458zm-14.43 20.501S10.025 24.51 9.88 24.51c-.004 0-.006-.002-.008-.006-.167-.449-1.849-4.176-1.849-4.176-.31-.747-.254-1.387.279-1.387.117 0 .257.031.421.099l1.306.679c.218.149.456.278.718.381l.066.025.123.062c1.009.534 1.33.727.791 1.552zM24.789 3.224l-4.586 16.858c-.259.95-.475 1.727-.479 1.727-.004-.002-.009-.02-.009-.023 0-.006-.748-.312-1.662-.686l-3.01-1.226c-.914-.37-2.413-.969-3.332-1.323l-.152-.061-.562-.292c-.557-.427-.606-1.131-.046-1.728l9.312-9.971c.374-.399.515-.605.434-.605-.064 0-.271.133-.617.404L8.298 15.592c-.514.401-1.295.625-2.029.625-.376 0-.741-.06-1.052-.183l-2.713-1.073c-.917-.363-.952-1.033-.079-1.493L23.672 2.327c.245-.128.46-.188.638-.188.457 0 .665.4.479 1.085z"/></symbol><symbol id="viber" viewBox="0 0 52.511 52.511"><path d="M31.256 0H21.254C10.778 0 2.255 8.521 2.255 18.995v9.01c0 7.8 4.793 14.81 12 17.665v5.841a.999.999 0 0 0 1.671.741L21.725 47h9.531c10.476 0 18.999-8.521 18.999-18.995v-9.01C50.255 8.521 41.732 0 31.256 0zm16.999 28.005C48.255 37.376 40.63 45 31.256 45h-9.917a.998.998 0 0 0-.671.259l-4.413 3.997v-4.279a.997.997 0 0 0-.667-.942 17.03 17.03 0 0 1-11.333-16.03v-9.01C4.255 9.624 11.881 2 21.254 2h10.002c9.374 0 16.999 7.624 16.999 16.995v9.01z"/><path d="M39.471 30.493l-6.146-3.992a2.994 2.994 0 0 0-4.15.88l-.289.444c-2.66-.879-5.593-2.002-7.349-7.085l.727-.632a3.005 3.005 0 0 0 .294-4.233l-4.808-5.531a1.001 1.001 0 0 0-1.411-.099l-3.019 2.624c-2.648 2.302-1.411 5.707-1.004 6.826.018.05.04.098.066.145.105.188 2.612 4.662 6.661 8.786 4.065 4.141 11.404 7.965 11.629 8.076a5.006 5.006 0 0 0 6.916-1.47l2.178-3.354c.3-.465.168-1.084-.295-1.385zm-3.561 3.649c-.901 1.388-2.763 1.782-4.233.834-.073-.038-7.364-3.835-11.207-7.75-3.592-3.659-5.977-7.724-6.302-8.291-.792-2.221-.652-3.586.464-4.556l2.265-1.968 4.152 4.776a.99.99 0 0 1-.096 1.411l-1.227 1.066a.999.999 0 0 0-.3 1.049c2.092 6.798 6.16 8.133 9.13 9.108l.433.143a.996.996 0 0 0 1.155-.403l.709-1.092a.988.988 0 0 1 .63-.434.99.99 0 0 1 .753.143l5.308 3.447-1.634 2.517zM28.538 16.247a1 1 0 1 0-.548 1.923 4.524 4.524 0 0 1 3.097 3.104 1 1 0 0 0 1.925-.542 6.538 6.538 0 0 0-4.474-4.485z"/><path d="M36.148 22.219a1 1 0 0 0 .963-1.271c-1.18-4.183-4.509-7.519-8.689-8.709a1 1 0 1 0-.547 1.924c3.517 1 6.318 3.809 7.311 7.328a1 1 0 0 0 .962.728z"/><path d="M27.991 7.582a1 1 0 1 0-.548 1.924c5.959 1.695 10.706 6.453 12.388 12.416a1 1 0 0 0 1.925-.542c-1.869-6.627-7.143-11.913-13.765-13.798z"/></symbol><symbol id="vk" viewBox="0 0 548.358 548.358"><path d="M545.451 400.298c-.664-1.431-1.283-2.618-1.858-3.569-9.514-17.135-27.695-38.167-54.532-63.102l-.567-.571-.284-.28-.287-.287h-.288c-12.18-11.611-19.893-19.418-23.123-23.415-5.91-7.614-7.234-15.321-4.004-23.13 2.282-5.9 10.854-18.36 25.696-37.397 7.807-10.089 13.99-18.175 18.556-24.267 32.931-43.78 47.208-71.756 42.828-83.939l-1.701-2.847c-1.143-1.714-4.093-3.282-8.846-4.712-4.764-1.427-10.853-1.663-18.278-.712l-82.224.568c-1.332-.472-3.234-.428-5.712.144l-3.713.859-1.431.715-1.136.859c-.952.568-1.999 1.567-3.142 2.995-1.137 1.423-2.088 3.093-2.848 4.996-8.952 23.031-19.13 44.444-30.553 64.238-7.043 11.803-13.511 22.032-19.418 30.693-5.899 8.658-10.848 15.037-14.842 19.126-4 4.093-7.61 7.372-10.852 9.849-3.237 2.478-5.708 3.525-7.419 3.142-1.715-.383-3.33-.763-4.859-1.143-2.663-1.714-4.805-4.045-6.42-6.995-1.622-2.95-2.714-6.663-3.285-11.136-.568-4.476-.904-8.326-1-11.563-.089-3.233-.048-7.806.145-13.706.198-5.903.287-9.897.287-11.991 0-7.234.141-15.085.424-23.555.288-8.47.521-15.181.716-20.125.194-4.949.284-10.185.284-15.705s-.336-9.849-1-12.991a44.442 44.442 0 0 0-2.99-9.137c-1.335-2.95-3.289-5.232-5.853-6.852-2.569-1.618-5.763-2.902-9.564-3.856-10.089-2.283-22.936-3.518-38.547-3.71-35.401-.38-58.148 1.906-68.236 6.855-3.997 2.091-7.614 4.948-10.848 8.562-3.427 4.189-3.905 6.475-1.431 6.851 11.422 1.711 19.508 5.804 24.267 12.275l1.715 3.429c1.334 2.474 2.666 6.854 3.999 13.134 1.331 6.28 2.19 13.227 2.568 20.837.95 13.897.95 25.793 0 35.689-.953 9.9-1.853 17.607-2.712 23.127-.859 5.52-2.143 9.993-3.855 13.418-1.715 3.426-2.856 5.52-3.428 6.28-.571.76-1.047 1.239-1.425 1.427a21.387 21.387 0 0 1-7.71 1.431c-2.667 0-5.901-1.334-9.707-4-3.805-2.666-7.754-6.328-11.847-10.992-4.093-4.665-8.709-11.184-13.85-19.558-5.137-8.374-10.467-18.271-15.987-29.691l-4.567-8.282c-2.855-5.328-6.755-13.086-11.704-23.267-4.952-10.185-9.329-20.037-13.134-29.554-1.521-3.997-3.806-7.04-6.851-9.134l-1.429-.859c-.95-.76-2.475-1.567-4.567-2.427a30.301 30.301 0 0 0-6.567-1.854l-78.229.568c-7.994 0-13.418 1.811-16.274 5.428l-1.143 1.711c-.571.953-.859 2.475-.859 4.57 0 2.094.571 4.664 1.714 7.707 11.42 26.84 23.839 52.725 37.257 77.659 13.418 24.934 25.078 45.019 34.973 60.237 9.897 15.229 19.985 29.602 30.264 43.112 10.279 13.515 17.083 22.176 20.412 25.981 3.333 3.812 5.951 6.662 7.854 8.565l7.139 6.851c4.568 4.569 11.276 10.041 20.127 16.416 8.853 6.379 18.654 12.659 29.408 18.85 10.756 6.181 23.269 11.225 37.546 15.126 14.275 3.905 28.169 5.472 41.684 4.716h32.834c6.659-.575 11.704-2.669 15.133-6.283l1.136-1.431c.764-1.136 1.479-2.901 2.139-5.276.668-2.379 1-5 1-7.851-.195-8.183.428-15.558 1.852-22.124 1.423-6.564 3.045-11.513 4.859-14.846 1.813-3.33 3.859-6.14 6.136-8.418 2.282-2.283 3.908-3.666 4.862-4.142.948-.479 1.705-.804 2.276-.999 4.568-1.522 9.944-.048 16.136 4.429 6.187 4.473 11.99 9.996 17.418 16.56 5.425 6.57 11.943 13.941 19.555 22.124 7.617 8.186 14.277 14.271 19.985 18.274l5.708 3.426c3.812 2.286 8.761 4.38 14.853 6.283 6.081 1.902 11.409 2.378 15.984 1.427l73.087-1.14c7.229 0 12.854-1.197 16.844-3.572 3.998-2.379 6.373-5 7.139-7.851.764-2.854.805-6.092.145-9.712-.677-3.611-1.344-6.136-2.008-7.563z"/></symbol><symbol id="webpack" viewBox="0 0 128 128"><path d="M117.29 98.1L66.24 127v-22.51L98 87l19.29 11.1zm3.5-3.16V34.55l-18.68 10.8v38.81l18.67 10.77zM10.71 98.1l51 28.88v-22.49L29.94 87zm-3.5-3.16V34.55l18.68 10.8v38.81zm2.19-64.3L61.76 1v21.76L28.21 41.21l-.27.15zm109.18 0L66.24 1v21.76L99.79 41.2l.27.15 18.54-10.71zM61.76 99.37L30.37 82.1V47.92L61.76 66zm4.48 0l31.39-17.25v-34.2L66.24 66zM32.5 44L64 26.66 95.5 44 64 62.16 32.5 44z"/></symbol><symbol id="wordpress" viewBox="0 0 430.117 430.118"><path d="M0 215.059c0 118.786 96.274 215.059 215.059 215.059 118.759 0 215.059-96.272 215.059-215.059C430.117 96.303 333.817 0 215.059 0 96.274 0 0 96.303 0 215.059zm16.572 0c0-28.775 6.196-56.082 17.191-80.78l94.679 259.398c-66.2-32.136-111.87-100.061-111.87-178.618zm198.487 198.482c-19.48 0-38.3-2.838-56.077-8.06l59.568-173.032 61.008 167.128c.396.989.887 1.862 1.4 2.702-20.61 7.285-42.802 11.262-65.899 11.262zm160.407-202.204c11.323-28.317 15.112-50.955 15.112-71.084 0-7.309-.49-14.09-1.372-20.421 15.495 28.287 24.307 60.711 24.307 95.232 0 73.235-39.671 137.151-98.662 171.538l60.615-175.265zm-42.797-61.038c7.533 13.212 16.377 30.203 16.377 54.742 0 17-5.055 38.366-15.107 64.175l-19.807 66.123-71.733-213.328c11.976-.651 22.71-1.895 22.71-1.895 10.697-1.27 9.418-16.96-1.246-16.372 0 0-32.161 2.539-52.913 2.539-19.508 0-52.264-2.539-52.264-2.539-10.702-.588-11.943 15.751-1.272 16.372 0 0 10.146 1.244 20.846 1.895l30.894 84.727-43.424 130.239-72.295-214.966c11.974-.651 22.736-1.895 22.736-1.895 10.704-1.27 9.395-16.96-1.272-16.372 0 0-32.135 2.539-52.913 2.539-3.72 0-8.093-.098-12.757-.231 35.5-53.884 96.506-89.475 165.831-89.475 51.674 0 98.723 19.767 134.02 52.131-.849-.067-1.698-.168-2.548-.168-19.541 0-33.342 16.972-33.342 35.209.003 16.373 9.431 30.21 19.479 46.55z"/></symbol></svg>